<?xml version="1.0" standalone="no"?>
<!DOCTYPE svg PUBLIC "-//W3C//DTD SVG 20010904//EN"
 "http://www.w3.org/TR/2001/REC-SVG-20010904/DTD/svg10.dtd">
<svg version="1.0" xmlns="http://www.w3.org/2000/svg"
 width="780.000000pt" height="780.000000pt" viewBox="0 0 780.000000 780.000000"
 preserveAspectRatio="xMidYMid meet">
<metadata>
Created by potrace 1.11, written by Peter Selinger 2001-2013
</metadata>
<g transform="translate(0.000000,780.000000) scale(0.100000,-0.100000)"
fill="#000000" stroke="none">
<path d="M2205 7420 c-176 -35 -329 -130 -441 -275 -28 -36 -59 -89 -151 -252
-14 -26 -39 -69 -54 -95 -16 -27 -29 -51 -29 -53 0 -2 -19 -36 -43 -77 -24
-40 -59 -100 -77 -133 -18 -33 -42 -73 -52 -90 -10 -16 -21 -37 -25 -45 -4 -8
-43 -77 -86 -155 -44 -77 -91 -160 -105 -185 -14 -25 -28 -49 -32 -55 -4 -5
-21 -35 -37 -65 -17 -30 -40 -73 -53 -95 -13 -22 -34 -60 -48 -85 -14 -25 -42
-74 -62 -110 -32 -55 -77 -134 -230 -405 -13 -22 -34 -60 -48 -85 -14 -25 -60
-106 -102 -180 -42 -74 -92 -162 -110 -195 -18 -33 -87 -154 -153 -270 -193
-337 -219 -407 -218 -590 0 -156 28 -244 144 -450 46 -82 240 -423 292 -515
51 -89 241 -426 277 -490 14 -25 51 -89 82 -144 31 -54 56 -101 56 -103 0 -3
8 -17 19 -31 10 -15 33 -54 51 -87 18 -33 79 -141 135 -240 56 -99 191 -337
300 -530 109 -192 223 -392 252 -444 29 -51 53 -95 53 -98 0 -10 88 -122 124
-158 100 -99 238 -172 363 -192 57 -9 3367 -11 3403 -2 88 23 119 34 170 58
151 73 240 163 347 351 93 161 104 180 141 250 19 36 41 72 48 81 8 8 14 18
14 21 0 3 44 84 98 179 55 96 110 194 124 219 14 25 149 263 300 530 151 267
287 508 302 535 16 28 31 55 36 60 4 6 21 35 37 65 16 30 76 136 133 235 56
99 118 209 138 245 19 36 46 82 59 102 13 21 23 40 23 42 0 2 25 47 55 99 101
175 126 265 121 442 -4 165 -26 228 -158 460 -22 38 -52 90 -66 115 -14 25
-36 62 -49 82 -12 21 -23 40 -23 42 0 3 -15 31 -34 63 -18 32 -45 78 -58 103
-43 76 -154 273 -175 310 -33 56 -182 320 -216 380 -53 96 -62 111 -184 325
-65 116 -122 217 -126 225 -4 8 -15 29 -25 45 -15 24 -166 290 -304 533 -290
515 -287 509 -369 590 -99 97 -236 168 -374 192 -71 12 -3317 12 -3380 0z"/>
</g>
</svg>
