<?xml version="1.0" standalone="no"?>
<!DOCTYPE svg PUBLIC "-//W3C//DTD SVG 20010904//EN"
 "http://www.w3.org/TR/2001/REC-SVG-20010904/DTD/svg10.dtd">
<svg version="1.0" xmlns="http://www.w3.org/2000/svg"
 width="671.000000pt" height="671.000000pt" viewBox="0 0 671.000000 671.000000"
 preserveAspectRatio="xMidYMid meet">
<metadata>
Created by potrace 1.11, written by Peter Selinger 2001-2013
</metadata>
<g transform="translate(0.000000,671.000000) scale(0.100000,-0.100000)"
fill="#000000" stroke="none">
<path d="M2047 6124 c-1 -1 -20 -4 -43 -7 -22 -3 -61 -13 -85 -22 -24 -9 -52
-19 -61 -22 -10 -3 -18 -9 -18 -14 0 -5 -7 -9 -15 -9 -39 0 -180 -146 -231
-240 -78 -142 -403 -715 -412 -725 -4 -5 -15 -26 -25 -45 -9 -19 -30 -57 -47
-85 -16 -27 -33 -57 -37 -65 -4 -8 -19 -35 -33 -61 -32 -54 -72 -123 -113
-199 -17 -30 -41 -72 -54 -92 -13 -21 -23 -40 -23 -42 0 -3 -22 -43 -49 -88
-27 -46 -57 -99 -68 -118 -11 -19 -37 -66 -58 -105 -22 -38 -43 -71 -47 -73
-4 -2 -8 -12 -8 -23 0 -10 -3 -19 -7 -19 -5 0 -13 -10 -18 -23 -16 -34 -59
-111 -66 -117 -3 -3 -15 -24 -26 -47 -28 -54 -47 -87 -53 -93 -26 -26 -140
-262 -146 -303 -33 -205 -12 -313 100 -502 20 -33 39 -67 43 -75 4 -8 29 -52
55 -98 26 -46 48 -88 48 -93 0 -5 5 -9 10 -9 6 0 10 -5 10 -11 0 -5 27 -57 60
-114 33 -57 60 -109 60 -114 0 -6 5 -11 10 -11 6 0 10 -5 10 -10 0 -6 18 -40
40 -76 22 -36 40 -68 40 -69 0 -2 15 -30 34 -62 18 -32 44 -78 58 -103 25 -45
223 -394 261 -460 11 -19 29 -52 39 -73 11 -20 24 -40 29 -43 5 -3 9 -14 9
-25 0 -10 4 -19 10 -19 5 0 17 -17 25 -37 9 -21 23 -45 32 -55 9 -10 13 -18 9
-18 -4 0 1 -12 12 -27 10 -16 51 -84 89 -153 39 -69 80 -142 92 -163 11 -20
31 -54 42 -75 93 -163 120 -204 174 -258 85 -86 202 -147 305 -161 47 -7 2642
-10 2655 -4 5 3 18 6 30 8 51 7 89 19 145 46 43 21 50 26 84 54 8 7 18 13 20
13 7 0 87 82 106 109 18 25 49 78 83 141 14 25 41 72 60 105 19 33 48 85 63
115 16 30 31 57 35 60 5 5 91 156 133 235 11 22 23 42 26 45 6 6 25 39 57 100
13 25 33 61 44 80 23 38 140 244 199 350 20 36 46 81 57 100 11 19 61 108 111
197 216 382 373 659 382 673 27 42 81 164 91 207 31 129 5 340 -50 406 -8 9
-10 17 -5 17 5 0 4 4 -2 8 -5 4 -39 59 -74 122 -91 164 -97 175 -175 312 -38
68 -71 129 -73 136 -2 6 -8 12 -13 12 -5 0 -9 4 -9 9 0 8 -17 40 -101 188 -12
21 -37 65 -56 98 -19 33 -37 68 -40 78 -3 9 -9 17 -14 17 -5 0 -9 4 -9 9 0 5
-31 64 -70 132 -38 67 -70 124 -70 126 0 2 -12 22 -27 46 -15 23 -28 44 -28
47 0 3 -10 21 -21 40 -12 19 -45 78 -75 130 -30 52 -59 104 -66 115 -7 11 -16
29 -21 40 -6 11 -33 61 -62 110 -29 50 -68 118 -86 152 -19 34 -48 86 -65 115
-18 29 -45 78 -62 108 -96 175 -197 266 -352 317 l-80 26 -1318 1 c-725 1
-1319 1 -1320 0z m201 -374 c20 3 49 3 65 -1 15 -4 27 -3 27 1 0 5 14 5 30 0
17 -5 30 -5 30 0 0 5 13 5 30 0 17 -5 30 -5 30 -1 0 5 15 5 33 2 17 -4 46 -4
63 0 18 3 38 3 45 -2 7 -4 20 -4 29 1 9 5 22 5 30 0 8 -5 18 -6 24 -3 12 8
112 6 126 -2 5 -3 10 -2 10 4 0 6 11 6 30 1 17 -5 30 -5 30 0 0 5 13 5 30 0
17 -5 30 -5 30 0 0 5 13 5 30 0 17 -5 30 -6 30 -2 0 4 17 6 37 5 21 -1 38 -2
38 -3 0 -6 68 -4 71 2 3 4 15 3 28 -2 12 -4 29 -4 36 0 8 5 21 5 30 0 9 -5 22
-5 30 0 8 5 21 5 31 0 9 -5 19 -6 23 -3 8 8 112 7 126 -2 5 -3 10 -2 10 4 0 6
11 6 30 1 17 -5 30 -5 30 0 0 5 13 5 30 0 17 -5 30 -5 30 0 0 5 13 5 30 0 17
-5 30 -6 30 -2 0 4 17 6 37 5 21 -1 38 -2 38 -3 0 -6 68 -4 71 2 3 4 15 3 27
-1 12 -5 34 -5 49 0 15 4 30 4 33 -1 3 -5 16 -5 30 0 15 6 27 6 30 0 3 -6 15
-6 30 0 15 6 25 6 25 0 0 -5 12 -5 30 0 17 5 30 6 30 2 0 -4 16 -7 35 -7 19 0
35 2 35 5 0 6 88 3 106 -4 8 -3 14 -1 14 4 0 5 13 5 30 0 17 -5 30 -5 30 0 0
5 13 5 30 0 17 -5 30 -5 30 0 0 5 6 7 14 4 8 -3 34 -7 58 -9 101 -8 157 -28
242 -85 57 -39 165 -170 158 -192 -1 -5 2 -8 8 -8 5 0 10 -4 10 -9 0 -5 23
-48 50 -96 28 -48 50 -91 50 -96 0 -5 4 -9 9 -9 5 0 11 -8 14 -17 6 -18 72
-139 86 -158 5 -5 25 -41 45 -78 54 -100 77 -141 86 -152 6 -9 38 -66 86 -155
11 -19 21 -37 25 -40 3 -3 13 -21 22 -40 10 -19 22 -42 27 -50 10 -15 46 -78
92 -161 14 -24 34 -60 45 -79 127 -224 183 -323 183 -327 0 -3 8 -17 19 -31
10 -15 34 -56 54 -92 19 -36 67 -121 106 -190 40 -69 75 -137 78 -153 3 -15 9
-30 14 -33 9 -5 23 -110 22 -164 -1 -51 -20 -135 -43 -185 -11 -24 -20 -47
-20 -50 0 -3 -5 -11 -11 -18 -9 -10 -117 -199 -222 -387 -16 -30 -83 -149
-149 -263 -65 -114 -118 -212 -118 -217 0 -6 -4 -10 -9 -10 -5 0 -13 -10 -17
-22 -4 -13 -17 -39 -29 -58 -12 -19 -39 -66 -60 -105 -21 -38 -43 -79 -49 -90
-6 -11 -16 -27 -22 -35 -6 -8 -25 -40 -41 -70 -39 -72 -65 -118 -191 -340 -58
-102 -114 -201 -124 -220 -43 -77 -84 -137 -118 -170 -66 -67 -163 -121 -245
-138 -16 -3 -547 -7 -1180 -8 l-1150 -2 -74 24 c-89 30 -167 80 -220 142 -40
49 -117 172 -114 184 1 3 -4 12 -12 18 -8 7 -15 16 -15 20 0 5 -27 54 -60 110
-33 56 -60 104 -60 106 0 2 -11 22 -25 44 -13 21 -40 67 -58 102 -32 59 -86
154 -107 188 -5 8 -23 42 -41 75 -17 33 -36 65 -41 72 -5 7 -18 27 -27 45 -57
106 -67 124 -78 136 -7 7 -16 24 -19 38 -3 13 -10 24 -15 24 -5 0 -9 4 -9 9 0
6 -15 36 -34 68 -18 32 -45 78 -58 103 -22 39 -58 103 -176 312 -12 20 -32 55
-46 77 -15 22 -26 43 -26 45 0 2 -31 59 -70 126 -38 67 -70 127 -70 134 0 7
-4 16 -10 22 -5 5 -11 21 -14 34 -2 14 -5 25 -6 25 -4 0 -9 55 -11 110 -3 113
19 189 88 305 18 30 33 59 33 63 0 4 5 13 10 20 18 21 79 127 73 127 -3 0 1 8
9 18 8 9 29 42 45 72 103 186 269 476 275 478 5 2 8 8 8 14 0 8 95 179 154
278 11 19 21 37 21 40 0 3 13 24 28 47 15 24 27 45 27 47 0 2 31 57 68 123 37
65 71 125 75 133 4 8 22 40 40 71 18 30 73 127 122 215 67 118 105 174 150
219 66 65 163 120 233 131 23 4 45 11 49 17 5 8 8 8 10 0 2 -6 18 -8 41 -3z"/>
<path d="M2490 3283 l1 -1438 25 30 c13 17 30 40 37 51 15 26 98 147 106 154
3 3 39 55 80 115 41 61 77 112 80 115 3 3 11 12 16 22 10 16 76 112 133 193
16 22 45 64 65 93 l36 53 0 282 c0 155 0 318 0 363 l1 81 403 -1 402 -1 33
105 c18 58 36 112 39 120 3 8 7 20 8 25 6 22 67 211 76 233 5 13 9 26 9 30 0
4 -218 7 -485 7 l-485 0 -1 80 c-1 115 2 199 7 205 3 2 204 5 447 6 480 1 458
1 455 12 0 4 2 14 5 22 5 12 124 381 134 415 1 6 5 22 9 38 l6 27 -821 0 -821
0 0 -1437z"/>
</g>
</svg>
